HIERARCHY
ROOT Hips
{
	OFFSET 0.000000 71.427986 0.000000
	CHANNELS 6 Xposition Yposition Zposition Xrotation Yrotation Zrotation
	JOINT Pelvis
	{
		OFFSET 0.000000 0.000000 0.000000
		CHANNELS 3 Xrotation Yrotation Zrotation
		JOINT LeftUpLeg
		{
			OFFSET 6.797100 -2.508499 -1.318700
			CHANNELS 3 Xrotation Yrotation Zrotation
			JOINT LeftLeg
			{
				OFFSET 0.069008 -29.241863 0.690200
				CHANNELS 3 Xrotation Yrotation Zrotation
				JOINT LeftFoot
				{
					OFFSET -0.069008 -29.568123 -0.266800
					CHANNELS 3 Xrotation Yrotation Zrotation
					JOINT LeftToeBase
					{
						OFFSET 3.145500 -8.631000 16.059900
						CHANNELS 3 Xrotation Yrotation Zrotation
						End Site
						{
							OFFSET 0.000000 18.501587 0.000000
						}
					}
				}
			}
			JOINT Left_ShortSleeve
			{
				OFFSET 0.265923 -10.480953 1.153800
				CHANNELS 3 Xrotation Yrotation Zrotation
				End Site
				{
					OFFSET 1.725763 19.823879 0.000000
				}
			}
		}
		JOINT RightUpLeg
		{
			OFFSET -6.797100 -2.508499 -1.318700
			CHANNELS 3 Xrotation Yrotation Zrotation
			JOINT RightLeg
			{
				OFFSET -0.082453 -29.241932 0.688000
				CHANNELS 3 Xrotation Yrotation Zrotation
				JOINT RightFoot
				{
					OFFSET 0.082453 -29.568058 -0.264600
					CHANNELS 3 Xrotation Yrotation Zrotation
					JOINT RightToeBase
					{
						OFFSET -3.115300 -8.682800 16.113400
						CHANNELS 3 Xrotation Yrotation Zrotation
						End Site
						{
							OFFSET 0.000000 18.567114 0.000000
						}
					}
				}
			}
			JOINT Right_ShortSleeve
			{
				OFFSET -0.265923 -10.480953 1.153800
				CHANNELS 3 Xrotation Yrotation Zrotation
				End Site
				{
					OFFSET -1.725766 19.823910 0.000000
				}
			}
		}
	}
	JOINT Spine
	{
		OFFSET 0.000000 13.368103 0.470500
		CHANNELS 3 Xrotation Yrotation Zrotation
		JOINT Spine1
		{
			OFFSET 0.147000 13.837402 0.538800
			CHANNELS 3 Xrotation Yrotation Zrotation
			JOINT Spine2
			{
				OFFSET 0.168000 16.242897 -1.435500
				CHANNELS 3 Xrotation Yrotation Zrotation
				JOINT Neck
				{
					OFFSET 0.217200 18.631500 -1.679100
					CHANNELS 3 Xrotation Yrotation Zrotation
					JOINT Head
					{
						OFFSET 0.000000 6.599396 1.385900
						CHANNELS 3 Xrotation Yrotation Zrotation
						JOINT Hat
						{
							OFFSET -0.532200 27.220596 -10.096100
							CHANNELS 3 Xrotation Yrotation Zrotation
							End Site
							{
								OFFSET 0.000000 22.029861 0.000000
							}
						}
						JOINT HairD
						{
							OFFSET -10.777400 17.437393 -1.325900
							CHANNELS 3 Xrotation Yrotation Zrotation
							JOINT HairD1
							{
								OFFSET -3.290299 -11.051193 1.062200
								CHANNELS 3 Xrotation Yrotation Zrotation
								End Site
								{
									OFFSET 0.000000 11.579437 0.000000
								}
							}
						}
						JOINT HairB
						{
							OFFSET -10.777400 17.437393 1.467900
							CHANNELS 3 Xrotation Yrotation Zrotation
							JOINT HairB1
							{
								OFFSET -1.561200 -12.956299 3.590200
								CHANNELS 3 Xrotation Yrotation Zrotation
								End Site
								{
									OFFSET 0.000000 13.534866 0.000000
								}
							}
						}
						JOINT HairA
						{
							OFFSET 9.713100 17.437393 1.467900
							CHANNELS 3 Xrotation Yrotation Zrotation
							JOINT HairA1
							{
								OFFSET 1.561200 -12.956299 3.590200
								CHANNELS 3 Xrotation Yrotation Zrotation
								End Site
								{
									OFFSET 0.000000 13.534866 0.000000
								}
							}
						}
						JOINT HairC
						{
							OFFSET 9.713100 17.437393 -1.325900
							CHANNELS 3 Xrotation Yrotation Zrotation
							JOINT HairC1
							{
								OFFSET 3.290300 -11.051193 1.062200
								CHANNELS 3 Xrotation Yrotation Zrotation
								End Site
								{
									OFFSET 0.000000 11.579437 0.000000
								}
							}
						}
					}
				}
				JOINT LeftShoulder
				{
					OFFSET 5.101800 15.108002 -2.763700
					CHANNELS 3 Xrotation Yrotation Zrotation
					JOINT LeftArm
					{
						OFFSET 9.825497 2.506317 -1.597400
						CHANNELS 3 Xrotation Yrotation Zrotation
						JOINT LeftForeArm
						{
							OFFSET 21.966244 0.000000 0.000000
							CHANNELS 3 Xrotation Yrotation Zrotation
							JOINT LeftHand
							{
								OFFSET 33.879036 0.000000 0.000000
								CHANNELS 3 Xrotation Yrotation Zrotation
								JOINT LeftHandThumb1
								{
									OFFSET 6.715286 -2.359680 3.363841
									CHANNELS 3 Xrotation Yrotation Zrotation
									JOINT LeftHandThumb2
									{
										OFFSET 2.507072 -1.447464 1.447461
										CHANNELS 3 Xrotation Yrotation Zrotation
										JOINT LeftHandThumb3
										{
											OFFSET 2.898338 -1.673355 1.673357
											CHANNELS 3 Xrotation Yrotation Zrotation
											End Site
											{
												OFFSET -0.295959 3.727692 -0.131651
											}
										}
									}
								}
								JOINT LeftHandIndex1
								{
									OFFSET 14.190811 -0.254547 3.840278
									CHANNELS 3 Xrotation Yrotation Zrotation
									JOINT LeftHandIndex2
									{
										OFFSET 3.551727 0.000000 -0.000000
										CHANNELS 3 Xrotation Yrotation Zrotation
										JOINT LeftHandIndex3
										{
											OFFSET 2.894196 0.000000 0.000000
											CHANNELS 3 Xrotation Yrotation Zrotation
											End Site
											{
												OFFSET -1.000603 2.690872 0.366626
											}
										}
									}
								}
								JOINT LeftHandMiddle1
								{
									OFFSET 13.776489 0.000000 0.000000
									CHANNELS 3 Xrotation Yrotation Zrotation
									JOINT LeftHandMiddle2
									{
										OFFSET 3.438232 0.000000 0.000000
										CHANNELS 3 Xrotation Yrotation Zrotation
										JOINT LeftHandMiddle3
										{
											OFFSET 3.691551 0.000000 0.000000
											CHANNELS 3 Xrotation Yrotation Zrotation
											End Site
											{
												OFFSET -1.082298 3.499527 0.457670
											}
										}
									}
								}
								JOINT LeftHandRing1
								{
									OFFSET 13.966164 -0.268127 -3.067488
									CHANNELS 3 Xrotation Yrotation Zrotation
									JOINT LeftHandRing2
									{
										OFFSET 3.162567 0.000000 0.000000
										CHANNELS 3 Xrotation Yrotation Zrotation
										JOINT LeftHandRing3
										{
											OFFSET 3.324348 0.000000 0.000000
											CHANNELS 3 Xrotation Yrotation Zrotation
											End Site
											{
												OFFSET -0.861900 3.184998 0.405154
											}
										}
									}
								}
								JOINT LeftHandPinky1
								{
									OFFSET 13.131393 -0.168503 -5.746925
									CHANNELS 3 Xrotation Yrotation Zrotation
									JOINT LeftHandPinky2
									{
										OFFSET 2.849182 0.000000 0.000000
										CHANNELS 3 Xrotation Yrotation Zrotation
										JOINT LeftHandPinky3
										{
											OFFSET 2.805038 0.000000 0.000000
											CHANNELS 3 Xrotation Yrotation Zrotation
											End Site
											{
												OFFSET -0.882500 2.642609 0.325652
											}
										}
									}
								}
							}
							JOINT Left_Sleeve
							{
								OFFSET 6.592125 -0.646545 0.805568
								CHANNELS 3 Xrotation Yrotation Zrotation
								End Site
								{
									OFFSET -0.000179 20.275787 -0.000000
								}
							}
						}
					}
				}
				JOINT RightShoulder
				{
					OFFSET -5.731700 15.108002 -2.763700
					CHANNELS 3 Xrotation Yrotation Zrotation
					JOINT RightArm
					{
						OFFSET -9.825497 2.506317 -1.597400
						CHANNELS 3 Xrotation Yrotation Zrotation
						JOINT RightForeArm
						{
							OFFSET -21.966242 0.000000 0.000000
							CHANNELS 3 Xrotation Yrotation Zrotation
							JOINT RightHand
							{
								OFFSET -33.879032 0.000000 0.000000
								CHANNELS 3 Xrotation Yrotation Zrotation
								JOINT RightHandThumb1
								{
									OFFSET -6.715286 -2.359680 3.363841
									CHANNELS 3 Xrotation Yrotation Zrotation
									JOINT RightHandThumb2
									{
										OFFSET -2.507072 -1.447464 1.447461
										CHANNELS 3 Xrotation Yrotation Zrotation
										JOINT RightHandThumb3
										{
											OFFSET -2.898338 -1.673355 1.673357
											CHANNELS 3 Xrotation Yrotation Zrotation
											End Site
											{
												OFFSET 0.295959 3.727692 -0.131651
											}
										}
									}
								}
								JOINT RightHandIndex1
								{
									OFFSET -14.190811 -0.254547 3.840278
									CHANNELS 3 Xrotation Yrotation Zrotation
									JOINT RightHandIndex2
									{
										OFFSET -3.551727 0.000000 -0.000000
										CHANNELS 3 Xrotation Yrotation Zrotation
										JOINT RightHandIndex3
										{
											OFFSET -2.894196 0.000000 0.000000
											CHANNELS 3 Xrotation Yrotation Zrotation
											End Site
											{
												OFFSET 1.000603 2.690872 0.366626
											}
										}
									}
								}
								JOINT RightHandMiddle1
								{
									OFFSET -13.776489 0.000000 0.000000
									CHANNELS 3 Xrotation Yrotation Zrotation
									JOINT RightHandMiddle2
									{
										OFFSET -3.438232 0.000000 0.000000
										CHANNELS 3 Xrotation Yrotation Zrotation
										JOINT RightHandMiddle3
										{
											OFFSET -3.691551 0.000000 0.000000
											CHANNELS 3 Xrotation Yrotation Zrotation
											End Site
											{
												OFFSET 1.082298 3.499527 0.457670
											}
										}
									}
								}
								JOINT RightHandRing1
								{
									OFFSET -13.966164 -0.268127 -3.067488
									CHANNELS 3 Xrotation Yrotation Zrotation
									JOINT RightHandRing2
									{
										OFFSET -3.162567 0.000000 0.000000
										CHANNELS 3 Xrotation Yrotation Zrotation
										JOINT RightHandRing3
										{
											OFFSET -3.324348 0.000000 0.000000
											CHANNELS 3 Xrotation Yrotation Zrotation
											End Site
											{
												OFFSET 0.861900 3.184998 0.405154
											}
										}
									}
								}
								JOINT RightHandPinky1
								{
									OFFSET -13.131393 -0.168503 -5.746925
									CHANNELS 3 Xrotation Yrotation Zrotation
									JOINT RightHandPinky2
									{
										OFFSET -2.849182 0.000000 0.000000
										CHANNELS 3 Xrotation Yrotation Zrotation
										JOINT RightHandPinky3
										{
											OFFSET -2.805038 0.000000 0.000000
											CHANNELS 3 Xrotation Yrotation Zrotation
											End Site
											{
												OFFSET 0.882500 2.642609 0.325652
											}
										}
									}
								}
							}
							JOINT Right_Sleeve
							{
								OFFSET -6.592125 -0.646545 0.805568
								CHANNELS 3 Xrotation Yrotation Zrotation
								End Site
								{
									OFFSET 0.000179 20.275787 -0.000000
								}
							}
						}
					}
				}
				JOINT Bind_Right_JacketString
				{
					OFFSET -3.534800 11.969597 7.200700
					CHANNELS 3 Xrotation Yrotation Zrotation
					JOINT Bind_Right_JacketString1
					{
						OFFSET -0.319900 -6.102600 2.794100
						CHANNELS 3 Xrotation Yrotation Zrotation
						End Site
						{
							OFFSET 0.000000 6.719452 0.000000
						}
					}
				}
				JOINT Bind_Left_JacketString
				{
					OFFSET 2.904800 11.969597 7.200700
					CHANNELS 3 Xrotation Yrotation Zrotation
					JOINT Bind_Left_JacketString1
					{
						OFFSET 0.364800 -5.904503 3.186800
						CHANNELS 3 Xrotation Yrotation Zrotation
						End Site
						{
							OFFSET 0.000000 6.719513 0.000000
						}
					}
				}
				JOINT HairE
				{
					OFFSET 5.915200 17.612701 -11.592200
					CHANNELS 3 Xrotation Yrotation Zrotation
					JOINT HairE1
					{
						OFFSET 0.289200 -7.171898 -1.284500
						CHANNELS 3 Xrotation Yrotation Zrotation
						End Site
						{
							OFFSET 0.000000 7.291756 0.000000
						}
					}
				}
				JOINT HairF
				{
					OFFSET -0.864800 17.612701 -11.592200
					CHANNELS 3 Xrotation Yrotation Zrotation
					JOINT HairF1
					{
						OFFSET 0.000000 -14.087097 -2.127501
						CHANNELS 3 Xrotation Yrotation Zrotation
						End Site
						{
							OFFSET 0.000000 14.246841 0.000000
						}
					}
				}
				JOINT HairG
				{
					OFFSET -8.087700 17.612701 -11.592200
					CHANNELS 3 Xrotation Yrotation Zrotation
					JOINT HairG1
					{
						OFFSET -0.293600 -6.081398 -0.910100
						CHANNELS 3 Xrotation Yrotation Zrotation
						End Site
						{
							OFFSET 0.000000 6.156120 0.000000
						}
					}
				}
			}
		}
	}
	JOINT Pouch
	{
		OFFSET 0.000000 4.394501 10.847300
		CHANNELS 3 Xrotation Yrotation Zrotation
		End Site
		{
			OFFSET 0.000000 21.880577 0.000000
		}
	}
	JOINT Bag
	{
		OFFSET -13.229000 4.813004 -0.593300
		CHANNELS 3 Xrotation Yrotation Zrotation
		End Site
		{
			OFFSET 0.000000 21.880577 0.000000
		}
	}
	JOINT OccupyGuyFacialAnim_Joint
	{
		OFFSET 1.000000 -70.206398 -1.655000
		CHANNELS 3 Xrotation Yrotation Zrotation
		End Site
		{
			OFFSET 0.000000 21.880577 0.000000
		}
	}
}
MOTION
Frames: 4
Frame Time: 0.033333
-0.571420 64.394920 0.306452 26.894268 -30.172538 1.469526 0.000000 0.000000 -0.000000 -70.285577 -17.481739 28.304367 114.452688 -4.243300 -21.033747 2.980423 -9.563081 10.344761 0.000001 0.000001 -0.000002 0.000007 -0.000001 -0.000003 -41.911434 7.289303 12.672815 51.749840 0.456234 -2.194837 -27.347656 1.247185 3.284918 -0.000001 0.000001 -0.000000 0.000002 0.000001 -0.000000 19.244726 -4.581484 -2.466238 0.163148 -4.014760 2.194592 0.354006 -3.906469 2.500207 -3.621490 7.616253 -2.389887 -33.817387 36.856882 16.181447 0.000001 0.000000 0.000000 0.000001 0.000000 0.000000 0.000001 0.000000 0.000000 0.000001 0.000000 0.000000 0.000001 0.000000 0.000000 0.000001 0.000000 0.000000 0.000001 0.000000 0.000000 0.000001 0.000000 0.000000 0.000001 0.000000 0.000000 -5.131886 -22.535799 -7.308311 -24.092167 13.351840 -5.803924 -14.208878 -54.466131 -7.635417 -8.138000 -6.221933 20.020345 4.437901 -5.116925 6.605801 8.442419 34.901413 3.407906 0.000000 0.000002 0.000001 11.052041 -1.067663 -1.457497 0.013794 0.255177 -22.427841 0.000003 0.000003 0.000000 9.875673 -0.435019 -9.542301 0.113055 0.695988 -31.570763 0.000001 0.000000 0.000004 8.850586 0.293053 -20.710833 0.012380 0.354261 -37.185486 0.000001 0.000001 0.000001 9.890528 3.682178 -23.246522 0.071049 0.275923 -38.234504 0.000001 0.000001 -0.000001 -0.000001 0.000001 0.000005 -4.644546 15.396802 1.426625 30.649412 -28.227184 64.639756 8.225056 33.306950 -11.324209 17.491034 15.818093 -28.349030 -14.203359 14.028877 -0.342244 10.090554 -39.707882 -4.196095 -0.000002 0.000002 -0.000002 11.253363 3.760945 -10.703274 -0.291852 -0.117478 57.443291 -0.000001 0.000000 0.000002 5.210131 -9.828530 -11.990964 0.462642 -0.642542 50.834130 0.000003 0.000001 0.000003 4.800986 -19.426842 -6.585351 0.282355 -0.312082 62.959509 0.000001 0.000004 0.000001 10.212962 -27.821628 11.143760 0.312789 -0.173307 81.778859 0.000002 -0.000002 -0.000001 -0.000001 0.000001 0.000001 -0.000000 0.000003 -0.000002 -0.000000 0.000000 0.000001 -0.000000 0.000003 -0.000003 -0.000000 0.000003 -0.000003 -0.000000 0.000003 -0.000002 -0.000000 0.000000 0.000001 -0.000000 0.000003 -0.000003 -0.000000 0.000003 -0.000003 -0.000000 0.000003 -0.000002 -0.000000 0.000000 0.000001 0.000000 0.000000 -0.000000 0.000000 0.000000 -0.000000 0.000000 0.000000 -0.000000 
-1.059039 65.074158 12.059456 31.143508 -30.563734 6.941609 0.000001 0.000000 -0.000000 -77.306649 -18.123309 32.003866 95.755666 -3.220746 -23.328509 -3.805793 -5.818641 8.572040 0.000000 0.000000 0.000000 -0.000001 -0.000000 0.000001 -32.729075 11.307900 3.915580 47.057490 2.065065 -2.133429 -26.760410 3.641320 5.777607 0.000001 0.000000 0.000000 0.000000 -0.000001 -0.000000 17.356880 -6.346735 -12.052503 -1.439159 -2.134610 4.341594 -1.962893 -2.354933 4.576320 -3.201729 6.435409 -3.599135 -34.446836 34.310810 18.313146 -0.000000 -0.000000 0.000000 -0.000000 -0.000000 0.000000 -0.000000 -0.000000 -0.000000 -0.000000 -0.000000 -0.000000 -0.000000 -0.000000 -0.000000 -0.000000 -0.000000 -0.000000 -0.000000 -0.000000 -0.000000 -0.000000 -0.000000 0.000000 -0.000000 -0.000000 0.000000 -4.829145 -22.328235 -5.806947 -20.397137 13.771232 -5.761483 -18.126789 -56.003159 -11.127936 -17.624369 -13.139223 18.841430 4.437903 -5.116924 6.605801 8.442419 34.901413 3.407905 0.000003 0.000002 0.000001 11.061203 -1.008157 -0.402772 0.014435 0.256732 -23.862005 0.000001 0.000001 -0.000002 9.898291 -0.408325 -8.130550 0.118270 0.704955 -33.419696 0.000001 0.000001 0.000003 8.846878 0.280474 -19.278076 0.022373 0.365809 -39.657861 -0.000001 0.000006 0.000005 9.692927 3.713120 -22.738275 0.085694 0.293260 -42.804717 0.000000 0.000002 0.000003 0.000001 0.000000 -0.000002 -4.737735 15.872798 1.199141 35.136737 -29.867437 68.412698 8.103315 32.588991 -11.170010 18.307171 17.263798 -27.108772 -7.893419 13.211871 -3.636686 8.264433 -34.300903 -2.613922 0.000001 -0.000001 0.000003 12.004797 4.566820 -13.699257 -0.282424 -0.142891 55.526412 -0.000001 -0.000001 0.000005 5.238569 -8.197785 -15.576383 0.444611 -0.643659 47.876139 -0.000001 -0.000000 -0.000003 1.421035 -17.995402 -11.849397 0.301278 -0.294497 60.439196 0.000002 -0.000006 -0.000001 2.810927 -25.512596 3.541037 0.341569 -0.163740 78.644629 0.000003 -0.000001 0.000000 -0.000001 0.000004 -0.000002 0.000001 -0.000001 -0.000001 0.000003 -0.000003 0.000002 0.000001 -0.000001 -0.000002 0.000001 -0.000001 -0.000002 0.000001 -0.000001 -0.000001 0.000003 -0.000003 0.000003 0.000001 -0.000001 -0.000002 0.000001 -0.000001 -0.000002 0.000001 -0.000001 -0.000001 0.000003 -0.000003 0.000003 0.000001 0.000000 -0.000000 0.000001 0.000000 -0.000000 0.000001 0.000000 -0.000000 
-1.492328 66.179031 25.154947 33.736907 -27.904622 10.611899 -0.000001 0.000000 -0.000000 -77.211293 -14.899281 31.109104 67.856495 -5.629769 -22.998622 -9.673267 6.490392 4.385098 -0.000000 -0.000001 -0.000000 -0.000003 0.000003 0.000001 -20.703915 13.191545 -5.219248 37.785399 2.205666 -2.514279 -13.674180 3.824001 8.935515 0.000001 -0.000001 -0.000000 0.000000 -0.000001 0.000000 10.598792 -5.736230 -18.556403 -0.835596 -1.567546 5.474647 -0.699206 -1.774091 5.585341 -1.948986 5.169120 -4.842384 -34.976419 30.401384 19.568676 -0.000000 -0.000000 0.000000 -0.000000 -0.000000 0.000000 -0.000000 -0.000000 0.000000 -0.000000 -0.000000 0.000000 -0.000000 -0.000000 0.000000 -0.000000 -0.000000 0.000000 -0.000000 -0.000000 0.000000 -0.000000 -0.000000 0.000000 -0.000000 -0.000000 0.000000 -5.416068 -22.980421 -6.684208 -18.305327 10.425381 -7.271158 -17.596447 -55.209399 -10.507591 -15.009776 -16.358547 22.093698 4.437894 -5.116926 6.605801 8.442428 34.901420 3.407905 -0.000001 0.000004 0.000001 11.078124 -0.853757 2.317281 0.016220 0.260477 -27.643017 0.000001 -0.000001 -0.000002 9.950662 -0.338439 -4.601245 0.133351 0.727171 -38.187892 0.000003 -0.000000 -0.000001 8.839369 0.250258 -15.861706 0.048797 0.392682 -45.838793 -0.000001 0.000001 -0.000002 9.256502 3.769899 -21.620105 0.126045 0.329699 -53.702960 -0.000003 0.000001 -0.000000 0.000000 0.000000 0.000002 -5.175828 15.781864 0.676559 41.075576 -29.727015 72.930363 11.488481 30.226575 -12.679723 15.854563 18.157093 -26.919686 5.754899 10.711546 -9.245263 4.015601 -22.594356 1.335338 0.000003 -0.000001 -0.000000 14.040227 6.108470 -20.696848 -0.267065 -0.206026 50.955462 -0.000000 -0.000001 0.000004 6.013628 -4.670155 -23.337315 0.400629 -0.641508 41.059826 -0.000001 -0.000003 -0.000001 -4.537287 -13.509056 -21.879358 0.346954 -0.263933 54.894620 -0.000002 -0.000000 -0.000002 -8.773130 -18.100063 -7.698695 0.402805 -0.156694 72.191473 -0.000001 -0.000001 -0.000001 -0.000001 -0.000002 -0.000001 -0.000000 0.000000 -0.000001 0.000001 0.000000 -0.000001 -0.000000 0.000000 -0.000001 -0.000000 0.000000 -0.000001 -0.000000 0.000000 -0.000001 0.000001 0.000000 -0.000001 -0.000000 0.000000 -0.000001 -0.000000 0.000000 -0.000001 -0.000000 0.000000 -0.000001 0.000001 0.000000 -0.000001 -0.000001 0.000000 -0.000000 -0.000001 0.000000 -0.000000 -0.000001 0.000000 -0.000000 
-1.603407 66.572884 39.085495 30.989982 -23.236613 7.638204 0.000003 0.000000 -0.000001 -71.609903 -14.197080 25.732446 43.138881 -3.453296 -17.816678 -13.455585 16.671833 -0.496612 0.000000 0.000000 0.000000 0.000002 -0.000003 -0.000001 -7.079636 12.547222 -8.163837 24.807428 4.730129 -2.166939 23.278512 5.080733 11.748169 0.000001 -0.000000 0.000001 0.000001 -0.000000 -0.000000 7.322241 -4.002563 -16.414109 1.123436 -1.710844 4.432291 1.347189 -1.628122 4.399107 0.968496 3.683866 -5.402753 -36.567228 26.170973 20.233869 -0.000000 0.000000 -0.000000 -0.000000 0.000000 -0.000000 -0.000000 0.000000 0.000000 -0.000000 0.000000 -0.000001 0.000001 -0.000000 -0.000001 -0.000000 0.000000 -0.000001 0.000001 -0.000000 -0.000001 -0.000000 0.000000 -0.000000 -0.000000 0.000000 -0.000000 -5.575954 -26.167761 -6.810145 -19.090046 3.022098 -7.146256 -11.205518 -48.025311 -4.566313 -10.632517 -17.675751 25.468968 4.437901 -5.116924 6.605801 8.442422 34.901420 3.407905 -0.000003 -0.000000 0.000001 11.086064 -0.641579 6.036140 0.019082 0.265654 -32.988526 0.000001 0.000001 -0.000002 10.009709 -0.241855 -0.013309 0.157387 0.755482 -44.707772 0.000002 0.000001 0.000001 8.833048 0.213698 -11.784010 0.086154 0.423420 -53.874077 -0.000002 -0.000002 0.000001 8.818246 3.811202 -20.502037 0.182518 0.362339 -66.710724 0.000001 -0.000002 0.000003 0.000001 0.000001 -0.000001 -5.575209 15.349361 -0.063588 46.651111 -28.498932 77.854717 9.287332 28.391954 -11.172710 18.443502 18.703775 -27.112048 19.011773 7.949013 -12.590786 -0.744695 -11.228038 6.016930 -0.000002 -0.000000 0.000005 16.722847 7.231798 -28.621595 -0.262318 -0.284604 45.499694 -0.000000 -0.000002 -0.000007 7.727852 -1.384893 -30.995941 0.348920 -0.630665 33.471926 0.000004 -0.000002 -0.000001 -8.255784 -8.500769 -29.259205 0.396532 -0.244989 49.350115 0.000000 -0.000000 -0.000002 -13.767150 -12.905698 -12.058293 0.453885 -0.164005 66.844657 0.000001 -0.000001 0.000002 -0.000004 0.000003 0.000000 0.000003 0.000001 -0.000000 -0.000001 0.000001 -0.000000 0.000003 0.000001 -0.000001 0.000003 0.000001 -0.000001 0.000003 0.000001 -0.000000 -0.000001 0.000001 -0.000000 0.000003 0.000001 -0.000001 0.000003 0.000001 -0.000001 0.000003 0.000001 -0.000000 -0.000001 0.000001 -0.000000 0.000003 0.000000 -0.000001 0.000003 0.000000 -0.000001 0.000003 0.000000 -0.000001 
